<mxfile host="app.diagrams.net" modified="2024-12-28T19:10:24.705Z" agent="Mozilla/5.0 (Windows NT 10.0; Win64; x64) AppleWebKit/537.36 (KHTML, like Gecko) Chrome/130.0.0.0 Safari/537.36 OPR/115.0.0.0" version="21.5.0" etag="TJQjWogar30ZrEjdPchT" type="github">
  <diagram name="Strona-1" id="Masodeb92g1hI7SLXk8M">
    <mxGraphModel>
      <root>
        <mxCell id="0" />
        <mxCell id="1" parent="0" />
      </root>
    </mxGraphModel>
  </diagram>
</mxfile>
